<svg id="Layer_1" data-name="Layer 1" xmlns="http://www.w3.org/2000/svg" viewBox="0 0 1000 1000"><defs><style>.cls-1{fill:#020202;}</style></defs><path class="cls-1" d="M575.9,221H238.22V533.9c0,27.12,12.09,53.28,25.29,77.49,20.9,38.75,64.9,88.15,114.4,120.11l9.9,5.81c1.1,1,2.2,1,3.3,1.94,2.2,1,4.4,2.91,6.6,3.88,1.1,1,2.2,1,4.4,1.93s3.3,1.94,5.5,2.91c1.1,1,3.3,1,4.4,1.94,2.19,1,3.29,1.93,5.5,2.9,1.09,1,3.29,1,4.39,1.94,2.2,1,3.3,1.94,5.5,1.94,1.1,1,3.3,1,4.4,1.93,2.2,1,3.3,1,5.5,1.94,1.1,1,2.2,1,4.4,1.94s5.5,1.94,7.7,2.9c27.5,9.69,47.3,13.57,53.9,13.57h0c6.6,0,29.7-4.85,59.4-16.47l6.6-2.91c-2.2,1-1.1,1-1.1,1a25.3,25.3,0,0,0,5.5-2.9c1.1,0,2.2-1,3.3-1l6.6-2.91c2.2-1,4.39-1.94,6.6-2.9,1.1-1,2.19-1,3.29-1.94,2.2-1,3.3-1.94,5.5-2.91,1.1-1,2.2-1,3.3-1.94a23.19,23.19,0,0,0,6.6-3.87c1.1-1,2.2-1,3.3-1.94l9.9-5.81c49.5-32,93.5-81.36,114.4-120.11,13.2-25.18,25.29-51.34,25.29-77.49V221ZM274.51,295.62c6.6,4.84,25.3,17.43,46.2,18.4h1.1V277.21h-20.9V259.78h20.9v-18.4h19.8v17.43h19.8v17.44h-19.8v36.8h1.1c19.8,0,38.5-12.59,45.1-18.4v49.4c-6.6-4.84-25.3-17.43-45.1-17.43h-1.1v38.74h20.9V382.8h-20.9v21.31h-19.8V382.8h-20.9V365.36h19.8V326.62h-1.1c-19.8,0-39.6,12.59-46.2,17.43V295.62ZM599,595.89a8.94,8.94,0,0,1-1.1-2.9l1.1-1a16.49,16.49,0,0,1,5.5-1h0c-2.2,0-6.6-1-7.7-1.94s-2.2-2.9-3.3-3.87v-1c1.1,0,5.5,1,6.6,1h2.2v-1h0s-1.1,0-4.4-1.94c-2.2-1-3.3-1.93-4.4-1.93-1.1-1-2.19-1-3.29-1.94a1,1,0,0,0-1.11-1c1.11,0,4.4,1,6.6,1H599a30.74,30.74,0,0,1-7.69-2.91l-1.1-1c-2.21-1.93-4.4-2.9-5.5-4.84,0-1-1.1-3.87-1.1-4.84h1.1c2.2,1,9.89,4.84,15.39,7.75v1.93c0,1.94,1.1,2.91,2.2,2.91s3.3,0,4.4-1c3.3,4.85,9.9,14.53,13.2,20.34a20.91,20.91,0,0,0,3.3,4.85c3.3,4.84,7.7,7.75,8.8,8.71a4,4,0,0,1,1.1,2.91V623h-3.3c-1.1,0-2.2,0-2.2-1v-5.81h0l-1.1-1h-1.1c0,1-1.1,1.93,0,2.9h0v1.94c-1.1,1-2.2,1-4.4,0,0,0-1.1,0-1.1-1V617.2c1.1-1,1.1-3.87,1.1-3.87h0s-2.2,1-2.2,1.94v1.93a2.23,2.23,0,0,1-2.2-1.93,28.8,28.8,0,0,1,3.3-9.69h-1.1a18.59,18.59,0,0,0-3.3,3.88c0,1-1.1,1.93-1.1,2.9v1s-1.1,0-2.2-1.94a5.67,5.67,0,0,1-2.2-3.87c0-1,1.1-1,2.2-1.94l1.1-1a2.84,2.84,0,0,0,1.1-1.93h0a12.32,12.32,0,0,0-4.4,1c-1.1,0-1.1,1-2.2,1h0a1,1,0,0,0-1.1-1c0-1-1.1-1-1.1-1.93v-1c1.1-1,5.5-1.94,5.5-1.94h-3.3a28.66,28.66,0,0,1-8.8-2.91m18.7-13.56,4.4-6.78c0-1,1.1-1,2.2-1s2.2,0,2.2,1l7.7,10.66V594l-8.8-13.56-4.4,7.75c0,1-1.1,1-2.2,1s-2.2,0-2.2-1l-9.9-16.47-1.1,1.94a3.66,3.66,0,0,1-2.2,1c-1.1,0-1.1-1-1.1-1.93V561h0c0-1,1.1-1,1.1-1h2.2l9.9,6.78c1.1,1,1.1,1,1.1,1.93a2.24,2.24,0,0,1-2.2,1.94h-3.3Zm20.9-18.4a4,4,0,0,1-1.1-2.91c0-2.9,2.2-6.78,3.3-6.78,2.2,5.82,5.5,7.75,5.5,7.75h0a12.17,12.17,0,0,0,2.2-2.9c1.1-1.94,0-3.88,0-4.85a21.91,21.91,0,0,1,4.4,4.85V563h0c1.1,0,3.3-1.94,3.3-3.87a3.29,3.29,0,0,1,1.1,1.93c0,1,1.1,1.94,0,3.88s-3.3,3.87-4.4,3.87h-17.6c-2.2-1-4.4-3.87-5.5-5.81v-3.87c0,1,1.1,1.93,2.2,2.9a11.92,11.92,0,0,0,6.6,1.94h0m37.4,5.81a2.24,2.24,0,0,1-2.2-1.94c0-1,0-1.93,1.1-1.93l9.9-6.78c1.1,0,1.1-1,2.2,0a1,1,0,0,1,1.1,1h0v11.62a3.29,3.29,0,0,1-1.1,1.94c-1.1,0-2.2,0-2.2-1l-1.1-1.94-9.9,16.47c0,1-1.1,1-2.2,1s-2.2,0-2.2-1l-4.4-7.75L656.19,594v-7.75l7.7-11.63c0-1,1.1-1,2.2-1s2.2,0,2.2,1l4.4,6.79,7.7-12.6Zm-39.6,11.63h16.5c1.1,4.84,2.2,20.34,2.2,35.83,0,16.47-2.2,34.88-3.3,36.81v1h-16.5v-1A239,239,0,0,1,632,617.2c2.2-16.46,4.4-32,4.4-35.83m-4.4-5.82c0-1.93,2.2-3.87,4.4-3.87h18.7c2.2,0,4.4,1.94,4.4,3.87s-2.2,3.88-4.4,3.88h-18.7c-2.2-1-4.4-1.94-4.4-3.88m4.4,80.4h18.7c2.2,0,4.4,1.94,4.4,3.87s-2.2,3.88-4.4,3.88h-18.7c-2.2,0-4.4-1.94-4.4-3.88s2.2-3.87,4.4-3.87m-5.5-10.66-16.5,12.6,2.2,1c1.1,0,1.1,1,1.1,1.93a2.24,2.24,0,0,1-2.2,1.94l-12.1,2.91h0c-1.1,0-1.1,0-2.2-1v-1.94l4.4-10.65c0-1,1.1-1,2.2-1A2.24,2.24,0,0,1,610,653l1.1,2.91,12.1-9.69-8.8-1.93c-1.1,0-1.1-1-2.2-1.94,0-1,0-1.94,1.1-1.94l15.4-13.56s1.1,0,1.1-1h1.1v4.85h0l-11,9.68,8.8,1.94a2.24,2.24,0,0,1,2.2,1.94c1.1-1,0,0,0,1m28.6,30c0-1-1.1-1.94-2.2-2.9a7.28,7.28,0,0,0-4.4-1.94h0a4,4,0,0,1,1.1,2.9c0,2.91-2.2,6.79-3.3,6.79-2.2-5.82-5.5-7.75-5.5-7.75h0a11.9,11.9,0,0,0-2.2,2.9c-1.1,1.94,0,3.88,0,4.85a21.91,21.91,0,0,1-4.4-4.85v-3.87h0c-1.1,0-3.3,1.93-3.3,3.87a3.29,3.29,0,0,1-1.1-1.94c0-1-1.1-1.93,0-3.87s3.3-3.87,4.4-3.87h17.6c2.2,1,4.4,3.87,5.5,5.81a3.72,3.72,0,0,0-2.2,3.87m28.6-10.65a4,4,0,0,1-2.2,1h0l-12.1-2.91a2.24,2.24,0,0,1-2.2-1.94c0-1,0-1.93,1.1-1.93l2.2-1-16.5-12.6c-1.1-1-1.1-1-1.1-1.93s1.1-1,2.2-1.94l8.8-1.94-11-9.68h0V625h1.1s1.1,0,1.1,1l15.4,13.56c1.1,1,1.1,1,1.1,1.94s-1.1,1-2.2,1.94l-7.7,1,12.1,9.68,1.1-2.9a2.24,2.24,0,0,1,2.2-1.94,4,4,0,0,1,2.2,1l4.4,10.65c1.1,1.94,1.1,2.91,0,3.88m18.7-94.93c-1.1,1.94-2.2,2.91-5.5,4.84l-1.1,1a30.88,30.88,0,0,1-7.7,2.91h3.3c2.2,0,4.4-1,6.6-1a1,1,0,0,1-1.1,1,13.77,13.77,0,0,1-3.3,1.94c-1.1,1-2.2,1-4.4,1.93-3.3,1.94-4.4,1.94-4.4,1.94h-1.1v1h2.2c1.1,0,4.4-1,5.5-1v1c0,1-1.1,2.91-3.3,3.87-1.1,1-6.6,1.94-7.7,1.94h0a16.49,16.49,0,0,1,5.5,1l1.1,1a3.28,3.28,0,0,1-1.1,2.9s-3.3,1.94-5.5,1.94h-3.3s4.4,1,5.5,1.94v1c0,1-1.1,1-1.1,1.94l-1.1,1h0a3.66,3.66,0,0,1-2.2-1,12.21,12.21,0,0,0-4.4-1h0a2.82,2.82,0,0,0,1.1,1.93l1.1,1,2.2,1.94c0,1,0,1.94-2.2,3.87l-1.1,4.85v-1a3.3,3.3,0,0,0-1.1-2.91,18.71,18.71,0,0,0-3.3-3.87h0a58.32,58.32,0,0,0,3.3,9.68c0,1-2.2,1.94-2.2,1.94V617.2l-2.2-1.93h0a8.69,8.69,0,0,0,1.1,3.87c0,1,1.1,1,0,1.94l-1.1,1c-1.1,1-3.3,0-4.4,0-1.1-1-1.1-1,0-1.94h0c1.1-1.94,0-1.94,0-2.91h-1.1a1,1,0,0,0-1.1,1h0c0,1,1.1,4.85,0,5.81,0,1-1.1,1-2.2,1h-3.3v-9.68c0-1.94,0-2.91,1.1-2.91s5.5-2.9,8.8-8.72a20.6,20.6,0,0,0,3.3-4.84c3.3-5.81,9.9-16.47,13.2-20.34,1.1,1,2.2,1.94,4.4,1,1.1,0,2.2-1.94,2.2-2.91v-1.94c5.5-1.93,13.2-6.78,15.4-7.74h1.1c-3.3-1.94-4.4,1-4.4,2.9M754.09,530l-6.6,2.9a23.7,23.7,0,0,0-5.5,3.88l-1.1,1h0l-3.3,3.87-3.3-3.87s-8.8-9.69-26.4-9.69c-8.8,0-15.4,2.91-20.9,4.84a23.7,23.7,0,0,0-5.5,3.88,1,1,0,0,0-1.1,1h0l-3.3,3.87-3.3-3.87s-8.8-9.69-26.4-9.69c-8.8,0-15.4,2.91-19.8,4.84-2.2,1-3.3,2.91-4.4,2.91l-1.1,1h0l-3.3,3.87-3.3-3.87s-8.8-9.69-26.4-9.69c-9.89,0-15.39,1-18.69,1.94-2.2,1-2.2,1-3.3,1h0c-1.1,1-3.3,6.78-3.3,19.37,0,7.75,3.3,13.56,5.5,17.44a22.06,22.06,0,0,0,4.4,4.84c0,1,1.1,1,1.1,1h0l4.4,2.9-4.4,2.91h0a29.43,29.43,0,0,0-11,23.25c0,7.75,3.3,13.56,5.5,17.43a21.61,21.61,0,0,0,4.4,4.84l1.1,1h0l4.4,2.91-4.4,2.91c-1.1,0-11,8.71-11,24.21,0,7.75,3.3,13.56,5.5,17.44a22.06,22.06,0,0,0,4.4,4.84l1.1,1h0l4.4,2.9L574.8,684a32.61,32.61,0,0,0-11,24.22c0,7.74,3.3,13.56,5.5,17.43a21.61,21.61,0,0,0,4.4,4.84l1.1,1h0l4.4,2.91-4.4,2.9a40.82,40.82,0,0,0-9.9,14.53c-30.8,12.6-55,17.44-61.6,17.44h0c-5.5,0-26.4-3.88-53.9-14.53-2.2-11.62-9.9-17.44-11-17.44h0l-4.4-2.9,4.4-2.91h0l1.1-1a27,27,0,0,0,4.4-4.84c3.3-3.87,5.5-9.69,5.5-17.43,0-15.5-11-23.25-11-24.22l-4.4-2.91,4.4-2.9h0l1.1-1a27.73,27.73,0,0,0,4.4-4.84c3.3-3.88,5.5-9.69,5.5-17.44,0-15.5-11-23.25-11-24.21h0l-4.4-2.91,4.4-2.91h0l1.1-1a27,27,0,0,0,4.4-4.84c3.3-3.87,5.5-9.68,5.5-17.43a29.43,29.43,0,0,0-11-23.25l-4.4-2.91,4.4-2.9h0l1.1-1a27.73,27.73,0,0,0,4.4-4.84c3.3-3.88,5.5-9.69,5.5-17.44,0-13.56-3.3-18.4-3.3-19.37h0c-1.1,0-1.1-1-3.3-1-3.3-1-8.8-1.94-18.7-1.94-17.59,0-26.39,9.69-26.39,9.69l-3.3,3.87-3.3-3.87h0l-1.1-1a15.14,15.14,0,0,0-4.4-2.91c-4.4-2.9-11-4.84-19.8-4.84-17.6,0-26.4,9.69-26.4,9.69l-3.3,3.87-9.9-3.87h0l-1.1-1c-1.1-1-3.3-1.94-5.5-3.88-4.4-2.9-11-4.84-20.9-4.84-17.6,0-26.4,9.69-26.4,9.69l-3.3,3.87-3.3-3.87h0l-1.1-1c-1.1-1-3.3-1.94-5.5-3.88a25.81,25.81,0,0,0-13.2-3.87V431.23a39.47,39.47,0,0,0,13.2-4.85c2.2-1,4.4-2.9,5.5-2.9a1,1,0,0,0,1.1-1h0l3.3-3.87,3.3,3.87s8.8,9.69,26.4,9.69c8.8,0,15.4-2.91,20.9-4.85,2.2-1,4.4-2.9,5.5-2.9l1.1-1h0l3.3-3.88,3.3,3.88s8.8,9.68,26.4,9.68c8.8,0,15.4-2.9,19.8-4.84,2.2-1,3.3-2.9,4.4-3.87l1.1-1h0l3.3-3.88,3.3,3.88s8.8,9.68,26.4,9.68c9.89,0,15.39-1,18.69-1.93,2.2-1,2.2-1,3.3-1h0c1.1-1,3.3-6.78,3.3-19.37,0-7.75-3.3-13.57-5.5-17.44-1.1-1.94-3.3-3.87-4.4-3.87l-1.1-1h0l-1.1-5.81,4.4-2.91a29.43,29.43,0,0,0,11-23.25c0-7.75-3.3-13.56-5.5-17.43a21.91,21.91,0,0,0-4.4-4.85l-1.1-1h0l-4.4-2.91,4.4-2.91h0s11-8.71,11-23.24c0-7.75-3.3-13.56-5.5-17.44a21.83,21.83,0,0,0-4.4-4.84c0-1-1.1-1-1.1-1h0l-4.4-4.84,5.5-3.88a32.6,32.6,0,0,0,11-24.21c0-7.75-3.3-13.56-5.5-17.44-1.1-1-2.2-1.94-2.2-2.91H568.2c-1.1,1-1.1,1.94-2.2,2.91-3.3,3.88-5.5,9.69-5.5,17.44,0,15.49,11,23.24,11,24.21l4.4,3.88-4.4,2.9h0l-1.1,1A27.73,27.73,0,0,0,566,285c-3.3,3.88-5.5,9.69-5.5,17.44a29.43,29.43,0,0,0,11,23.25l4.4,2.9-4.4,2.91h0l-1.1,1a27.34,27.34,0,0,0-4.4,4.84c-3.3,3.87-5.5,9.69-5.5,17.44a29.42,29.42,0,0,0,11,23.24h0l4.4,2.91-4.4,2.9h0l-1.1,1-4.4,3.88c-3.3,3.87-5.5,9.68-5.5,17.43,0,13.56,3.3,18.41,3.3,19.38h0c1.1,0,1.1,1,3.3,1,3.3,1,9.9,1.94,18.7,1.94,17.59,0,26.39-9.68,26.39-9.68l3.3-3.88,3.3,3.88h0l1.1,1,4.4,3.88c4.4,2.9,11,4.84,19.8,4.84,17.6,0,26.4-9.68,26.4-9.68l3.3-3.88,3.3,3.88h0l1.1,1a24.84,24.84,0,0,0,5.5,2.91c4.4,2.91,11,4.84,20.9,4.84,17.6,0,26.4-9.68,26.4-9.68l3.3-3.88,3.3,3.88h0l1.1,1a25.3,25.3,0,0,0,5.5,2.9l6.6,2.91V530ZM610,465.13c1.1,1.94,1.1,4.84,1.1,6.78q0,7.26-6.6,11.62c-3.3,1.94-13.19,7.75-25.29,9.69-5.5,1-9.9,1.94-14.3,1.94-1.1,0-2.2,1-3.3,1a3.28,3.28,0,0,1,1.1,2.9c0,2.91-2.2,4.84-5.5,4.84s-5.5-1.93-5.5-4.84h0a8.35,8.35,0,0,1,3.3-6.78,4.4,4.4,0,0,1,3.3-1c1.1,0,3.3-1,4.4-1,4.4-1,8.8-1.93,15.4-2.9,11-1.94,19.79-5.81,22-7.75,3.3-1.94,4.4-3.88,4.4-6.78a9.42,9.42,0,0,0-1.1-4.84c-1.1-1-2.2-2.91-4.4-2.91-2.2-1-5.5-1-7.69-1h-2.21c-4.39,0-11,2.91-16.49,5.81,0,0-29.7,27.12-33,30-3.3,3.87-11,12.59-25.3,13.56a2.24,2.24,0,0,1,2.2,1.94,3.29,3.29,0,0,1-3.3,2.9h-1.1l4.4,8.72h14.3c1.1,0,3.3,1,3.3,2.91a3.29,3.29,0,0,1-3.3,2.9H471.4c-1.1,0-3.3-1-3.3-2.9a3.3,3.3,0,0,1,3.3-2.91h14.3l4.4-8.72H489c-1.1,0-3.3-1-3.3-2.9a2.24,2.24,0,0,1,2.2-1.94h-1.1s-18.7-4.84-29.7-18.4c-3.3-3.88-14.3-17.44-24.2-19.38-6.6-1-34.09-3.87-34.09-3.87-2.2,0-3.3-1.94-3.3-3.87s2.2-2.91,4.4-2.91a72.24,72.24,0,0,1,11,1c-1.1,0-2.2-1-1.1-2.91a2.23,2.23,0,0,1,2.2-1.93h0c-3.3-1-6.6-5.82-6.6-8.72a30.53,30.53,0,0,1,1.1-6.78,13.87,13.87,0,0,0,3.3,4.84,7.42,7.42,0,0,0,5.49,2.91s-1.1-1-1.1-3.88c-1.1-4.84,5.5-9.68,6.6-8.72,1.1,7.75,5.5,10.66,5.5,10.66s1.1,0,3.3-2.91,1.1-6.78,1.1-6.78,5.5,3.88,5.5,7.75c0,4.84,0,4.84-1.1,4.84,0,1,4.4-1,4.4-4.84,0-1,2.2,5.81,0,7.75-2.2,2.91-4.4,4.84-6.6,4.84h0c1.1,1,1.1,1,1.1,1.94s-1.1,1.94-3.3,1.94H434c4.4,1,14.3,1,23.1,1.94h6.6a2.24,2.24,0,0,1-2.2-1.94q0-2.91,3.3-2.91h20.9l4.4-5.81c-1.1,0-1.1-1-1.1-1.94a3.29,3.29,0,0,1,3.3-2.9h6.6c-1.1-1-2.2-1.94-2.2-3.88s2.2-3.87,4.4-3.87,4.4,1.94,4.4,3.87-1.1,2.91-2.2,3.88H511c1.1,0,3.3,1,3.3,2.9a3.29,3.29,0,0,1-1.1,1.94l3.3,5.81h22c1.1,0,3.3,1,3.3,2.91a2.24,2.24,0,0,1-2.2,1.94h14.3a25.71,25.71,0,0,0,13.2-3.88c1.1-1,3.3-1.94,4.4-2.9,5.5-2.91,12.09-5.82,18.69-6.79h2.2a34.35,34.35,0,0,1,9.9,1c2.2,3.88,5.5,5.82,7.7,9.69"/></svg>
